<?xml version="1.0" encoding="UTF-8"?>
<svg width="63px" height="39px" viewBox="0 0 63 39" version="1.1" xmlns="http://www.w3.org/2000/svg" xmlns:xlink="http://www.w3.org/1999/xlink">
    <title>XMLID_328_</title>
    <g id="flow" stroke="none" stroke-width="1" fill="none" fill-rule="evenodd">
        <g id="Artboard" transform="translate(-191.000000, -93.000000)" fill-rule="nonzero">
            <g id="Group-3" transform="translate(57.000000, 82.000000)">
                <g id="Group-Copy" transform="translate(120.000000, 0.000000)">
                    <g id="XMLID_328_" transform="translate(14.000000, 11.000000)">
                        <rect id="Rectangle-path" fill="#FF5F00" x="22.3217647" y="4.22882353" width="18.5747059" height="30.2976471"></rect>
                        <path d="M24.1952941,19.3776471 C24.1952941,13.2217647 27.0858823,7.76176471 31.5288236,4.22882353 C28.2635294,1.65941177 24.1417647,0.107058824 19.6452941,0.107058824 C8.99294118,0.107058824 0.374705882,8.72529412 0.374705882,19.3776471 C0.374705882,30.03 8.99294118,38.6482353 19.6452941,38.6482353 C24.1417647,38.6482353 28.2635294,37.0958823 31.5288236,34.5264705 C27.0858823,30.9935294 24.1952941,25.5335294 24.1952941,19.3776471 L24.1952941,19.3776471 Z" id="XMLID_330_" fill="#EB001B"></path>
                        <path d="M62.7364705,19.3776471 C62.7364705,30.03 54.1182353,38.6482353 43.4658823,38.6482353 C38.9694118,38.6482353 34.8476471,37.0958823 31.5823529,34.5264705 C36.0788236,30.9935294 38.9158823,25.5335294 38.9158823,19.3776471 C38.9158823,13.2217647 36.0252941,7.76176471 31.5823529,4.22882353 C34.8476471,1.65941177 38.9694118,0.107058824 43.4658823,0.107058824 C54.1182353,0.107058824 62.7364705,8.72529412 62.7364705,19.3776471 L62.7364705,19.3776471 Z" id="Shape" fill="#F79E1B"></path>
                    </g>
                </g>
            </g>
        </g>
    </g>
</svg>