<?xml version="1.0" encoding="UTF-8"?>
<svg width="70px" height="21px" viewBox="0 0 70 21" version="1.1" xmlns="http://www.w3.org/2000/svg" xmlns:xlink="http://www.w3.org/1999/xlink">
    <title>path10273</title>
    <defs>
        <path d="M46.2013287,26.7113554 C46.1609614,29.6365104 49.0076582,31.2685968 51.1519653,32.2406483 C53.3560159,33.236701 54.0955435,33.8742348 54.08747,34.765282 C54.0713231,36.1288542 52.3306883,36.730386 50.696623,36.7543873 C48.6727337,36.7964529 46.6711433,36.3548172 44.8837424,35.4718194 L43.8568001,39.9225551 C45.863743,40.6481446 48.00058,41.0136186 50.1540875,40.9996121 C56.0945285,40.9996121 59.9810851,38.2754679 60.0036907,34.0512442 C60.0262964,28.6899602 52.0222827,28.3944446 52.0771821,25.9973176 C52.0949437,25.2712792 52.8425447,24.4972382 54.4766101,24.2977276 C56.389751,24.1270621 58.3169433,24.4406675 60.0537461,25.2052757 L61.0483945,20.9000477 C59.3559706,20.3091912 57.5634183,20.004374 55.7554438,20 C50.1637756,20 46.2287784,22.7616463 46.199714,26.7128555 M70.6025097,20.3704761 C69.5485673,20.3646451 68.5964506,20.9541379 68.196623,21.8600985 L59.7098173,40.6830954 L65.647029,40.6830954 L66.8289814,37.6499347 L74.0837793,37.6499347 L74.7684075,40.6830954 L80,40.6830954 L75.435274,20.3704761 L70.6057391,20.3704761 M71.4356892,25.8578102 L73.1488743,33.4857142 L68.4565879,33.4857142 L71.4373039,25.8578102 M39.0062742,20.3705196 L34.323676,40.6830954 L39.9750877,40.6830954 L44.6576859,20.3705196 L39.0062742,20.3705196 M30.6373408,20.3705196 L24.7501845,34.1967519 L22.3685182,22.4421293 C22.1670803,21.2488001 21.0593802,20.3700098 19.7591807,20.3720197 L10.1340192,20.3720197 L10,20.9615509 C11.9311079,21.3185179 13.8064019,21.8990789 15.5819801,22.6896424 C16.3341594,23.0263871 16.8432179,23.7028074 16.9254014,24.474737 L21.4368426,40.6845955 L27.4111921,40.6845955 L36.5761672,20.3720197 L30.6357261,20.3720197" id="path-1"></path>
    </defs>
    <g id="flow" stroke="none" stroke-width="1" fill="none" fill-rule="evenodd">
        <g id="Artboard" transform="translate(-67.000000, -102.000000)">
            <g id="Group" transform="translate(57.000000, 82.000000)">
                <mask id="mask-2" fill="white">
                    <use xlink:href="#path-1"></use>
                </mask>
                <use id="path10273" fill="#1A1F71" xlink:href="#path-1"></use>
            </g>
        </g>
    </g>
</svg>